<svg width="9" height="9" viewBox="0 0 9 9" fill="none" xmlns="http://www.w3.org/2000/svg">
<path fill-rule="evenodd" clip-rule="evenodd" d="M0.645905 8.354C0.552169 8.26024 0.499512 8.13308 0.499512 8.0005C0.499512 7.86792 0.552169 7.74076 0.645905 7.647L7.2929 1H2.9999C2.8673 1 2.74012 0.947321 2.64635 0.853553C2.55258 0.759785 2.4999 0.632608 2.4999 0.5C2.4999 0.367392 2.55258 0.240215 2.64635 0.146447C2.74012 0.0526785 2.8673 0 2.9999 0H8.4999C8.63251 0 8.75969 0.0526785 8.85346 0.146447C8.94723 0.240215 8.9999 0.367392 8.9999 0.5V6C8.9999 6.13261 8.94723 6.25979 8.85346 6.35355C8.75969 6.44732 8.63251 6.5 8.4999 6.5C8.3673 6.5 8.24012 6.44732 8.14635 6.35355C8.05258 6.25979 7.9999 6.13261 7.9999 6V1.707L1.3539 8.354C1.30746 8.40056 1.25228 8.43751 1.19154 8.46271C1.13079 8.48792 1.06567 8.50089 0.999905 8.50089C0.934138 8.50089 0.869016 8.48792 0.808271 8.46271C0.747526 8.43751 0.69235 8.40056 0.645905 8.354Z" fill="#002BC7"/>
</svg>
