<svg width="32" height="32" viewBox="0 0 32 32" fill="none" xmlns="http://www.w3.org/2000/svg">
<rect width="32" height="32" rx="16" fill="#173BB9"/>
<path d="M6 24V22H15V10.825C14.5667 10.675 14.1917 10.4417 13.875 10.125C13.5583 9.80834 13.325 9.43334 13.175 9H10L13 16C13 16.8333 12.6583 17.5417 11.975 18.125C11.2917 18.7083 10.4667 19 9.5 19C8.53333 19 7.70833 18.7083 7.025 18.125C6.34167 17.5417 6 16.8333 6 16L9 9H7V7H13.175C13.375 6.41667 13.7333 5.93767 14.25 5.563C14.7667 5.18834 15.35 5.00067 16 5C16.65 4.99934 17.2333 5.187 17.75 5.563C18.2667 5.939 18.625 6.418 18.825 7H25V9H23L26 16C26 16.8333 25.6583 17.5417 24.975 18.125C24.2917 18.7083 23.4667 19 22.5 19C21.5333 19 20.7083 18.7083 20.025 18.125C19.3417 17.5417 19 16.8333 19 16L22 9H18.825C18.675 9.43334 18.4417 9.80834 18.125 10.125C17.8083 10.4417 17.4333 10.675 17 10.825V22H26V24H6ZM20.625 16H24.375L22.5 11.65L20.625 16ZM7.625 16H11.375L9.5 11.65L7.625 16ZM16 9C16.2833 9 16.521 8.904 16.713 8.712C16.905 8.52 17.0007 8.28267 17 8C16.9993 7.71734 16.9033 7.48 16.712 7.288C16.5207 7.096 16.2833 7 16 7C15.7167 7 15.4793 7.096 15.288 7.288C15.0967 7.48 15.0007 7.71734 15 8C14.9993 8.28267 15.0953 8.52033 15.288 8.713C15.4807 8.90567 15.718 9.00134 16 9Z" fill="white"/>
</svg>
