<svg width="16" height="16" viewBox="0 0 16 16" fill="none" xmlns="http://www.w3.org/2000/svg">
<path d="M7.77493 3.27518L9.02493 2.02518C9.34996 1.70016 9.73581 1.44234 10.1605 1.26644C10.5851 1.09053 11.0403 1 11.4999 1C11.9596 1 12.4147 1.09053 12.8394 1.26644C13.2641 1.44234 13.6499 1.70016 13.9749 2.02518C14.3 2.3502 14.5578 2.73606 14.7337 3.16072C14.9096 3.58538 15.0001 4.04053 15.0001 4.50018C15.0001 4.95983 14.9096 5.41498 14.7337 5.83964C14.5578 6.2643 14.3 6.65016 13.9749 6.97518L11.4749 9.47518C11.1499 9.80022 10.7641 10.0581 10.3394 10.234C9.91475 10.4099 9.45959 10.5004 8.99993 10.5004C8.54028 10.5004 8.08512 10.4099 7.66046 10.234C7.2358 10.0581 6.84994 9.80022 6.52493 9.47518C6.39229 9.33303 6.32003 9.14493 6.32339 8.95054C6.32675 8.75615 6.40546 8.57066 6.54293 8.43318C6.68041 8.29571 6.86591 8.21699 7.0603 8.21363C7.25469 8.21028 7.44279 8.28254 7.58493 8.41518C7.77068 8.60113 7.99126 8.74865 8.23405 8.8493C8.47685 8.94995 8.7371 9.00175 8.99993 9.00175C9.26276 9.00175 9.52302 8.94995 9.76581 8.8493C10.0086 8.74865 10.2292 8.60113 10.4149 8.41518L12.9149 5.91518C13.272 5.53623 13.4673 5.0331 13.4596 4.51252C13.4518 3.99194 13.2416 3.49485 12.8734 3.12671C12.5053 2.75856 12.0082 2.54831 11.4876 2.54056C10.967 2.5328 10.4639 2.72816 10.0849 3.08518L8.83493 4.33518C8.69279 4.46782 8.50469 4.54008 8.3103 4.53672C8.11591 4.53337 7.93041 4.45465 7.79293 4.31718C7.65546 4.1797 7.57675 3.99421 7.57339 3.79982C7.57003 3.60542 7.64229 3.41732 7.77493 3.27518ZM3.08493 12.9152C3.27068 13.1011 3.49126 13.2486 3.73405 13.3493C3.97685 13.4499 4.2371 13.5018 4.49993 13.5018C4.76277 13.5018 5.02302 13.4499 5.26581 13.3493C5.50861 13.2486 5.72919 13.1011 5.91493 12.9152L7.16493 11.6652C7.30708 11.5325 7.49518 11.4603 7.68957 11.4636C7.88396 11.467 8.06945 11.5457 8.20693 11.6832C8.34441 11.8207 8.42312 12.0062 8.42648 12.2005C8.42984 12.3949 8.35758 12.583 8.22493 12.7252L6.97493 13.9752C6.64991 14.3002 6.26406 14.558 5.83939 14.7339C5.41473 14.9098 4.95958 15.0004 4.49993 15.0004C4.04028 15.0004 3.58514 14.9098 3.16047 14.7339C2.73581 14.558 2.34996 14.3002 2.02493 13.9752C1.69991 13.6502 1.44209 13.2643 1.26619 12.8396C1.09029 12.415 0.999756 11.9598 0.999756 11.5002C0.999756 11.0405 1.09029 10.5854 1.26619 10.1607C1.44209 9.73606 1.69991 9.3502 2.02493 9.02518L4.52493 6.52518C4.84994 6.20014 5.2358 5.9423 5.66046 5.76638C6.08512 5.59047 6.54028 5.49993 6.99993 5.49993C7.45959 5.49993 7.91475 5.59047 8.33941 5.76638C8.76407 5.9423 9.14993 6.20014 9.47493 6.52518C9.60758 6.66732 9.67984 6.85542 9.67648 7.04982C9.67312 7.24421 9.59441 7.4297 9.45693 7.56718C9.31945 7.70465 9.13396 7.78337 8.93957 7.78672C8.74518 7.79008 8.55708 7.71782 8.41493 7.58518C8.22919 7.39923 8.00861 7.25171 7.76581 7.15106C7.52302 7.05041 7.26276 6.99861 6.99993 6.99861C6.7371 6.99861 6.47685 7.05041 6.23405 7.15106C5.99126 7.25171 5.77068 7.39923 5.58493 7.58518L3.08493 10.0852C2.89898 10.2709 2.75146 10.4915 2.65082 10.7343C2.55017 10.9771 2.49836 11.2373 2.49836 11.5002C2.49836 11.763 2.55017 12.0233 2.65082 12.2661C2.75146 12.5089 2.89898 12.7294 3.08493 12.9152Z" fill="#002BC7"/>
</svg>
