<svg width="156" height="640" viewBox="0 0 156 640" fill="none" xmlns="http://www.w3.org/2000/svg">
<path d="M156 632.881L155.288 640C99.0137 632.169 56.274 602.981 56.274 521.112V437.82C56.274 332.458 27.7808 336.018 0 328.187V320.356C27.7808 311.813 56.274 314.661 56.274 202.18V118.888C56.274 37.0189 99.0137 7.83091 155.288 0L156 7.11901C126.795 17.7975 106.137 44.8498 106.137 118.888V221.402C106.137 299.711 59.1233 323.915 26.3562 323.915C59.1233 323.915 106.137 341.001 106.137 418.598V521.112C106.137 595.15 126.795 622.914 156 632.881Z" fill="#173BB9"/>
</svg>
