<svg width="32" height="32" viewBox="0 0 32 32" fill="none" xmlns="http://www.w3.org/2000/svg">
<rect width="32" height="32" rx="16" fill="#173BB9"/>
<path d="M21 5.2C20 5.2 19.2 6 19.2 7C19.2 8 20 8.8 21 8.8C22 8.8 22.8 8 22.8 7C22.8 6 22 5.2 21 5.2ZM17.4 8.1C16.93 8.1 16.5 8.29 16.2 8.6L12.5 12.29C12.19 12.6 12 13 12 13.5C12 14.13 12.33 14.66 12.85 14.97L16.2 17V22H18V15.5L15.75 13.85L18.07 11.5L19.8 14H24V12.2H20.8L18.86 8.93C18.57 8.43 18 8.1 17.4 8.1ZM15 7H8C7.45 7 7 6.55 7 6C7 5.45 7.45 5 8 5H17.79C17.58 5.34 17.41 5.71 17.32 6.11C16.46 6.13 15.65 6.45 15 7ZM10 16C7.24 16 5 18.24 5 21C5 23.76 7.24 26 10 26C12.76 26 15 23.76 15 21C15 18.24 12.76 16 10 16ZM10 24.5C8.07 24.5 6.5 22.93 6.5 21C6.5 19.07 8.07 17.5 10 17.5C11.93 17.5 13.5 19.07 13.5 21C13.5 22.93 11.93 24.5 10 24.5ZM24 16C21.24 16 19 18.24 19 21C19 23.76 21.24 26 24 26C26.76 26 29 23.76 29 21C29 18.24 26.76 16 24 16ZM24 24.5C22.07 24.5 20.5 22.93 20.5 21C20.5 19.07 22.07 17.5 24 17.5C25.93 17.5 27.5 19.07 27.5 21C27.5 22.93 25.93 24.5 24 24.5ZM10.32 15H6C5.448 15 5 14.55 5 14C5 13.45 5.448 13 6 13H10.05C10.03 13.16 10 13.33 10 13.5C10 14.03 10.12 14.54 10.32 15ZM11 11H7C6.45 11 6 10.55 6 10C6 9.45 6.45 9 7 9H12.97L11.09 10.87C11.05 10.91 11 10.96 11 11Z" fill="white"/>
</svg>
