<svg width="24" height="25" viewBox="0 0 24 25" fill="none" xmlns="http://www.w3.org/2000/svg">
<path d="M21.9356 7.90309C21.9244 7.06334 21.7669 6.23193 21.4702 5.44606C21.213 4.78318 20.82 4.18117 20.3165 3.67849C19.813 3.17581 19.21 2.78351 18.546 2.52667C17.7689 2.23546 16.948 2.07799 16.1182 2.06098C15.0498 2.01331 14.711 2 11.9989 2C9.28676 2 8.93914 2 7.8785 2.06098C7.04904 2.07812 6.22851 2.23558 5.4518 2.52667C4.78771 2.78333 4.18461 3.17557 3.68107 3.67827C3.17753 4.18097 2.78464 4.78308 2.52754 5.44606C2.23526 6.22124 2.07788 7.04059 2.06219 7.86872C2.01444 8.93647 2 9.27464 2 11.9823C2 14.6899 2 15.0358 2.06219 16.0958C2.07885 16.9252 2.23545 17.7434 2.52754 18.5207C2.78507 19.1835 3.17825 19.7853 3.68196 20.2878C4.18567 20.7903 4.78883 21.1824 5.45291 21.439C6.22749 21.7419 7.04817 21.9106 7.87961 21.9379C8.94913 21.9856 9.28787 22 12 22C14.7121 22 15.0598 22 16.1204 21.9379C16.9502 21.9216 17.7712 21.7645 18.5482 21.4733C19.212 21.2162 19.8149 20.8238 20.3183 20.3211C20.8218 19.8185 21.2149 19.2166 21.4725 18.5539C21.7646 17.7778 21.9211 16.9595 21.9378 16.1291C21.9856 15.0624 22 14.7243 22 12.0155C21.9978 9.30791 21.9978 8.96419 21.9356 7.90309ZM11.9922 17.1026C9.15571 17.1026 6.85784 14.8085 6.85784 11.9767C6.85784 9.14492 9.15571 6.85087 11.9922 6.85087C13.354 6.85087 14.6599 7.39091 15.6228 8.3522C16.5857 9.31348 17.1266 10.6173 17.1266 11.9767C17.1266 13.3362 16.5857 14.64 15.6228 15.6012C14.6599 16.5625 13.354 17.1026 11.9922 17.1026ZM17.331 7.85653C17.1737 7.85667 17.0179 7.82586 16.8726 7.76584C16.7273 7.70582 16.5953 7.61779 16.4841 7.50677C16.3729 7.39575 16.2847 7.26393 16.2246 7.11885C16.1644 6.97377 16.1336 6.81828 16.1337 6.66127C16.1337 6.50438 16.1647 6.34903 16.2248 6.20408C16.285 6.05913 16.3731 5.92743 16.4842 5.81649C16.5953 5.70555 16.7273 5.61755 16.8725 5.55751C17.0176 5.49747 17.1733 5.46657 17.3304 5.46657C17.4876 5.46657 17.6432 5.49747 17.7884 5.55751C17.9336 5.61755 18.0655 5.70555 18.1766 5.81649C18.2877 5.92743 18.3759 6.05913 18.436 6.20408C18.4961 6.34903 18.5271 6.50438 18.5271 6.66127C18.5271 7.3221 17.9918 7.85653 17.331 7.85653Z" fill="black"/>
<path d="M12 15C13.6569 15 15 13.6569 15 12C15 10.3431 13.6569 9 12 9C10.3431 9 9 10.3431 9 12C9 13.6569 10.3431 15 12 15Z" fill="black"/>
</svg>
