<svg width="38" height="38" viewBox="0 0 38 38" fill="none" xmlns="http://www.w3.org/2000/svg">
<rect width="38" height="38" rx="19" fill="#173BB9"/>
<path d="M30 17C30 16.4696 29.7893 15.9609 29.4142 15.5858C29.0391 15.2107 28.5304 15 28 15H21.68L22.64 10.43C22.66 10.33 22.67 10.22 22.67 10.11C22.67 9.7 22.5 9.32 22.23 9.05L21.17 8L14.59 14.58C14.22 14.95 14 15.45 14 16V26C14 26.5304 14.2107 27.0391 14.5858 27.4142C14.9609 27.7893 15.4696 28 16 28H25C25.83 28 26.54 27.5 26.84 26.78L29.86 19.73C29.95 19.5 30 19.26 30 19V17ZM8 28H12V16H8V28Z" fill="white"/>
</svg>
