<svg width="32" height="32" viewBox="0 0 32 32" fill="none" xmlns="http://www.w3.org/2000/svg">
<rect width="32" height="32" rx="16" fill="#173BB9"/>
<path d="M6 8V9.5C6 13.65 8.21 17.28 11.5 19.3V24H26.5V22C26.5 19.34 21.17 18 18.5 18H18.25C13.5 18 9.5 14 9.5 9.5V8M18.5 8C17.4391 8 16.4217 8.42143 15.6716 9.17157C14.9214 9.92172 14.5 10.9391 14.5 12C14.5 13.0609 14.9214 14.0783 15.6716 14.8284C16.4217 15.5786 17.4391 16 18.5 16C19.5609 16 20.5783 15.5786 21.3284 14.8284C22.0786 14.0783 22.5 13.0609 22.5 12C22.5 10.9391 22.0786 9.92172 21.3284 9.17157C20.5783 8.42143 19.5609 8 18.5 8Z" fill="white"/>
</svg>
